<svg xmlns="http://www.w3.org/2000/svg" xmlns:xlink="http://www.w3.org/1999/xlink" version="1.1" x="0px" y="0px" viewBox="0 0 750 500" style="enable-background:new 0 0 750 500;" xml:space="preserve">
<style type="text/css">
	.st0{fill:url(#XMLID_8_);}
	.st1{opacity:0.3;}
	.st2{filter:url(#Adobe_OpacityMaskFilter);}
	.st3{mask:url(#SVGID_1_);}
	.st4{fill:#9E9EE5;}
	.st5{fill:#FFFFFF;}
	.st6{fill:url(#XMLID_38_);}
	.st7{fill:none;stroke:#274D79;stroke-width:0.782;stroke-miterlimit:10;}
	.st8{fill:#03AA99;}
	.st9{fill:#3B55CE;}
	.st10{fill:#000E5B;}
	.st11{fill:#3DC19A;}
	.st12{fill:none;stroke:#3B55CE;stroke-width:1.575;stroke-linecap:round;stroke-miterlimit:10;}
	.st13{fill:#91DBAC;}
	.st14{fill:#638BE2;}
	.st15{fill:#E5F7FF;}
	.st16{fill:#1E4174;}
	.st17{fill:#FF9A8D;}
	.st18{fill:#8FC9C6;}
	.st19{fill:none;stroke:#AAEEED;stroke-width:0.9245;stroke-linecap:round;stroke-miterlimit:10;}
	.st20{fill:#AAEEED;}
	.st21{fill:#BA5964;}
	.st22{fill:#001C45;}
	.st23{fill:none;stroke:#001C45;stroke-width:1.7149;stroke-linecap:round;stroke-miterlimit:10;}
	.st24{fill:#3ED9C7;}
	.st25{fill:none;stroke:#274D79;stroke-width:2.1;stroke-linecap:round;stroke-miterlimit:10;}
	.st26{fill:#85B8ED;}
	.st27{fill:#4E7EAC;}
	.st28{clip-path:url(#XMLID_40_);fill:none;stroke:#274D79;stroke-width:0.782;stroke-miterlimit:10;}
	.st29{fill:#E09B36;}
	.st30{fill:#FABA50;}
	.st31{fill:#032575;}
	.st32{font-family:Roboto; font-weight: 600}
	.st33{font-size:38.0537px;}
	.st34{fill:#042776;}
	.st35{font-size:14px;}
	.st36{fill:#1D262D;}
</style>

<g id="Objects">
	<g id="XMLID_3418_" class="st1">
		<defs>
			<filter id="Adobe_OpacityMaskFilter" filterUnits="userSpaceOnUse" x="71" y="92.1" width="608" height="353.5">
				<feFlood style="flood-color:white;flood-opacity:1" result="back"/>
				<feBlend in="SourceGraphic" in2="back" mode="normal"/>
			</filter>
		</defs>
		<mask maskUnits="userSpaceOnUse" x="71" y="92.1" width="608" height="353.5" id="SVGID_1_">
			<g class="st2">
				<image style="overflow:visible;" width="614" height="358" xlink:href="78FF4046.jpg" transform="matrix(1 0 0 1 68 90)">
				</image>
			</g>
		</mask>
		<g class="st3">
			<rect x="71" y="92.1" class="st4" width="608" height="353.5"/>
		</g>
	</g>
	<g id="XMLID_3484_">
		
			<image style="overflow:visible;opacity:0.5;" width="642" height="386" xlink:href="78FF4046.png" transform="matrix(1 0 0 1 54.25 50.25)">
		</image>
		<g>
			<g>
				<g id="XMLID_1066_">
					<g id="XMLID_1082_">
						<g id="XMLID_1087_">
							<g id="XMLID_1088_">
								<defs>
									<path id="XMLID_1089_" d="M495.4,336.8c0,0-39.6-13.7-54.3-19.1c-14.7-5.4-36.2-16.2-44.8-7.1c-8.5,9-1.4,22.5,19.1,29.9           c20.5,7.3,78.3,9.6,78.3,9.6C495.4,345.7,495.9,341.3,495.4,336.8z"/>
								</defs>
								<clipPath id="XMLID_16_">
									<use xlink:href="#XMLID_1089_" style="overflow:visible;"/>
								</clipPath>
							</g>
						</g>
					</g>
				</g>
			</g>
			<g>
				<rect id="XMLID_1063_" x="71" y="66.3" class="st5" width="608" height="353.5"/>
				<linearGradient id="XMLID_38_" gradientUnits="userSpaceOnUse" x1="375.0001" y1="65.3951" x2="375.0001" y2="353.9926">
					<stop offset="0" style="stop-color:#638BE3"/>
					<stop offset="9.573331e-02" style="stop-color:#719AE3;stop-opacity:0.8984"/>
					<stop offset="0.3877" style="stop-color:#99C4E5;stop-opacity:0.5884"/>
					<stop offset="0.617" style="stop-color:#B1DEE6;stop-opacity:0.3451"/>
					<stop offset="0.7537" style="stop-color:#BAE8E6;stop-opacity:0.2"/>
				</linearGradient>
				<polygon id="XMLID_1062_" class="st6" points="71,66.3 359.6,354.9 679,354.9 679,66.3     "/>
				<g id="XMLID_971_">
					<path id="XMLID_1061_" class="st7" d="M518.9,192.4c0,0,13.7-16.5,40-6c26.3,10.5,52,53.8,28.1,106.1"/>
					<path id="XMLID_1060_" class="st8" d="M521.6,203.9c-1.2,3.1-13.1-1.6-11.9-4.6l1.7-4.3c1.3-3.3,5-4.9,8.3-3.6l0,0       c3.3,1.3,4.9,5,3.6,8.3L521.6,203.9z"/>
					<path id="XMLID_1059_" class="st9" d="M509.6,199.3c-1.4,3,10.7,7.7,11.9,4.6C522.5,201.5,510.6,197.1,509.6,199.3z"/>
					<g id="XMLID_1058_">
						<path class="st10" d="M514.3,201.6c-0.1,0.4-0.7,0.5-1.3,0.3c-0.6-0.2-0.9-0.7-0.8-1.1c0.1-0.4,0.7-0.5,1.3-0.3        C514.1,200.7,514.5,201.2,514.3,201.6z"/>
					</g>
					<g id="XMLID_1057_">
						<path class="st10" d="M518.6,203.2c-0.1,0.4-0.7,0.5-1.3,0.3c-0.6-0.2-0.9-0.7-0.8-1.1c0.1-0.4,0.7-0.5,1.3-0.3        C518.4,202.3,518.7,202.8,518.6,203.2z"/>
					</g>
					<g id="XMLID_1054_">
						<path id="XMLID_1056_" class="st11" d="M585.1,354.1c0,0-5.2-1.4-8.5-6.1c-3.4-4.7-1.6-16,4.3-19.2c5.8-3.2,10.3-7,9.4-15.8        c-0.9-8.8,2-15.7,9.4-16.6c7.4-0.9,10.3-1,17.7-7.7c7.4-6.7,13.5-7.7,16.4-4c2.9,3.8,0.7,8.9-0.9,13.4        c-1.6,4.5,4,9.1,5.2,13.7c1.1,4.5,0.2,10.4-5.6,13.7c-5.8,3.2-9.9,5.8-9.2,11.7c0.7,5.9-2.7,14.8-15.3,17H585.1z"/>
						<path id="XMLID_1055_" class="st12" d="M624.4,294.1c0,0-27.4,21.5-32.2,60"/>
					</g>
					<g id="XMLID_1051_">
						<path id="XMLID_1053_" class="st13" d="M559.5,278.1c-4.3,2.7-4,7.4-3.8,13.4c0.2,6-1.5,8.1-4.9,12.1c-3.4,4-1.6,10,4.4,12.7        c5.9,2.7,11.1,6.9,8,13.9c-3.1,7-2,19.8,13.5,24l19.9,0c0,0,14-8.1,15.8-23c1.8-14.9-10.1-16.2-13.5-21.1        c-3.4-5-2.4-11.7-2.3-18.6c0.1-6.8-5.1-10.3-12.1-9.9c-7,0.4-9.7,0-13.3-2.5C567.5,276.6,563.1,275.8,559.5,278.1z"/>
						<path id="XMLID_1052_" class="st12" d="M566.4,286.9c0,0.2,24.2,16.6,23.1,67.1"/>
					</g>
					<g id="XMLID_1050_">
						<path class="st14" d="M622.3,357H209.9c-0.9,0-1.6-0.7-1.6-1.6l0,0c0-0.9,0.7-1.6,1.6-1.6h412.4c0.9,0,1.6,0.7,1.6,1.6l0,0        C623.9,356.3,623.2,357,622.3,357z"/>
					</g>
					<g id="XMLID_1049_">
						<path class="st15" d="M565.4,396.3H310.4c-17.5,0-31.6-14.2-31.6-31.6V357h318.3v7.7C597.1,382.2,582.9,396.3,565.4,396.3z"/>
					</g>
					<g id="XMLID_986_">
						<g id="XMLID_989_">
							<g id="XMLID_1048_">
								<path class="st16" d="M415.3,340.5c3.4,2.7,13,13.6,49.7,13.6c10.2,0,21.3,0.4,30.3-2c23.2-6.3,38.5-14.8,38.5-14.8          l-45-15.3l-40.3,0.2L415.3,340.5z"/>
							</g>
							<g id="XMLID_1038_">
								<g id="XMLID_1047_">
									<polygon class="st17" points="446.3,334 428.7,337.4 429.3,347 449,346.5          "/>
								</g>
								<g id="XMLID_1046_">
									<path class="st16" d="M446.3,334c0,0,42.6-12.1,55.9-15.4c15.2-3.9,38.2-14.3,45.9-4.6c7.8,9.7-1.7,22.6-22.7,28.3           c-21,5.7-78.4,5.1-78.4,5.1L446.3,334z"/>
								</g>
								<g id="XMLID_1039_">
									<g id="XMLID_1045_">
										<path class="st18" d="M412.1,331.5c0,0-0.7,2.2-0.6,6.9c0.1,4.7,2.5,8.2,2.7,15c0,0,2.6-4.3,2.5-11.4            C416.7,335,412.1,331.5,412.1,331.5z"/>
									</g>
									<g id="XMLID_1044_">
										<path class="st8" d="M437.6,347.2c-2.8,0.3-7.4,2.4-10.2,3.9c-2.8,1.5-4.3,3.1-9.4,3c0,0,0-13.3-0.6-17.4            c-0.5-4.1-1.4-4.8-1.4-4.8s4.7,0.3,7,1.5c2.3,1.2,2.6,1.8,6.7,2c4.1,0.2,5.8,0.4,7.6,0.3C440.1,340,439,345.1,437.6,347.2            z"/>
									</g>
									<g id="XMLID_1043_">
										<path class="st19" d="M425.7,348.8c0,0,1.6-6.9-0.7-11.6"/>
									</g>
									<g id="XMLID_1042_">
										<path class="st19" d="M428.6,347.9c0,0,1.5-5.3-0.7-10.3"/>
									</g>
									<g id="XMLID_1041_">
										<path class="st19" d="M431.9,346.6c0,0,1.4-3.5-0.5-8.7"/>
									</g>
									<g id="XMLID_1040_">
										<path class="st20" d="M418.1,354.1c-1.6,0-3.5-0.1-3.8-0.7c-0.3-0.7,1.6-4.6,0.9-12.5c-0.4-4.2-3.4-9.2-3-9.3s2.7-1,4,0.3            C417.5,333.2,424,341.9,418.1,354.1z"/>
									</g>
								</g>
							</g>
							<g id="XMLID_1037_">
								<path class="st17" d="M523.7,246c5.5-3.9,17.5-13,23.8-32.6c2-6.2,2.2-10.5,2.1-13.3c-3.2-2.7-2.9-7.9-5.9-11.1          c-4.2-4.5-7.9-10.2,0.2-10.2c4.5,0,8.7,0.2,10.9,2.3c1.8,1.7,5.1,6.8,5.7,8.5c1.4,4-0.2,9-0.4,15.1          c-0.2,6.1-4.2,44-33.4,59.9L523.7,246z"/>
							</g>
							<g id="XMLID_1036_">
								<path class="st17" d="M460.3,231.7c0,0-0.1,4.9-0.6,6.9c-0.4,2,0,3.1-6.1,4.1c0,0,2.5,8,13.1,9.4c10.6,1.4,14.9-7,14.6-7          c-0.3,0-3.3-1.2-4.2-1.8c-0.9-0.6-0.2-12.3-0.2-12.3L460.3,231.7z"/>
							</g>
							<path id="XMLID_1035_" class="st21" d="M476.7,233.9c0,0-1.3,4.1-7.7,4.5c-6.4,0.4-8.8-3.6-8.8-3.6l0.1-3.1l16.6-0.7         L476.7,233.9z"/>
							<g id="XMLID_1013_">
								<g id="XMLID_1019_">
									<g id="XMLID_1031_">
										<g id="XMLID_1034_">
											<path class="st17" d="M450.1,214.1c0,0-3.3-0.5-4.8,1.9c-1.5,2.4,0.4,7,3.8,7.8c3.3,0.7,4.4-1.1,4.4-1.1L450.1,214.1z"/>
										</g>
										<g id="XMLID_1033_">
											<path class="st21" d="M447.2,216.5c0.8-0.4,2-0.5,2.7-0.1c0.3,0.2-0.1,0.6-0.3,0.6c-1.4-0.3-3.1-0.2-3.6,1.5             c0,0.1-0.1,0-0.1,0C446,217.6,446.4,217,447.2,216.5z"/>
										</g>
										<g id="XMLID_1032_">
											<path class="st21" d="M447.9,216.6c0.1-0.1,0.5,0.2,0.5,0.3c-0.2,0.1-0.5,0.4-0.7,0.8c-0.2,0.5-0.2,1-0.1,1.6             c0.3,1.3,1.2,2.2,2.5,2.3c0,0,0.1,0.1,0,0.1c-1.1,0.4-2.6-0.6-3-1.6C446.8,219,446.6,217.4,447.9,216.6z"/>
										</g>
									</g>
									<g id="XMLID_1027_">
										<g id="XMLID_1030_">
											<path class="st17" d="M482.3,207.9c0,0,2.9-1.7,5.2,0c2.3,1.7,2.3,6.7-0.7,8.6c-2.8,1.9-4.5,0.6-4.5,0.6L482.3,207.9z"/>
										</g>
										<g id="XMLID_1029_">
											<path class="st21" d="M485.9,209.1c-0.9-0.1-2,0.3-2.5,1c-0.2,0.3,0.3,0.6,0.5,0.4c1.2-0.8,2.8-1.3,3.9,0.1             c0.1,0.1,0.1,0,0.1-0.1C487.5,209.7,486.8,209.2,485.9,209.1z"/>
										</g>
										<g id="XMLID_1028_">
											<path class="st21" d="M485.3,209.4c-0.2,0-0.4,0.4-0.4,0.5c0.2,0,0.6,0.2,0.9,0.5c0.4,0.4,0.6,0.8,0.7,1.4             c0.2,1.4-0.3,2.5-1.5,3.1c0,0,0,0.1,0,0.1c1.2,0,2.2-1.5,2.2-2.6C487.2,211.3,486.8,209.7,485.3,209.4z"/>
										</g>
									</g>
									<g id="XMLID_1026_">
										<path class="st17" d="M470.4,191.8c-2.6-0.9-5.3-1.2-8-0.7c-2.6,0.5-5.3,1.7-7.3,3.5c-4.8,4.2-6.7,10.7-5.5,16.9            c0,0,0,0,0,0c0.3,1.8,0.8,3.5,1.3,5.2l0.8,2.4c0.6,1.9,1.9,5.4,4.1,8.7c4.2,6.5,11.1,7.6,15.1,6.8            c4-0.8,9.9-4.3,11.5-11.9c0.8-3.8,0.7-7.6,0.5-9.6l-0.2-2.5c-0.1-1.8-0.4-3.6-0.7-5.3c0,0,0,0,0,0            C480.7,199.1,476.4,193.9,470.4,191.8z"/>
									</g>
									<g id="XMLID_1020_">
										<g id="XMLID_1025_">
											<path class="st22" d="M472.8,210.2c-0.2-0.9,0.4-1.8,1.4-2c0.9-0.2,1.8,0.4,2,1.4c0.2,0.9-0.4,1.8-1.4,2             C473.9,211.8,473,211.2,472.8,210.2z"/>
										</g>
										<g id="XMLID_1024_">
											<path class="st22" d="M473.2,204l8.1,1.5c0,0-0.6-2.2-3.5-3.4c-1.3-0.5-2.7-0.5-3.5,0C473.1,202.8,473.2,204,473.2,204z"/>
										</g>
										<g id="XMLID_1023_">
											<path class="st22" d="M459.3,206.5l-5.9,5.7c0,0-0.7-2.2,1-4.7c0.8-1.1,2-1.9,3-1.9C458.7,205.4,459.3,206.5,459.3,206.5             z"/>
										</g>
										<g id="XMLID_1021_">
											<g>
												<path id="XMLID_1022_" class="st22" d="M462,212.5c-0.2-0.9-1.1-1.5-2-1.4c-0.9,0.2-1.5,1.1-1.4,2              c0.2,0.9,1.1,1.5,2,1.4C461.5,214.4,462.1,213.5,462,212.5z"/>
											</g>
										</g>
									</g>
								</g>
								<path id="XMLID_1018_" class="st21" d="M467.9,210.8c-0.8,0.2-1.4,8.2-0.3,9.4c0.4,0.5,1.6,0.8,2.2,0.6          c0.6-0.1,1.6-0.8,1.8-1.4C472.2,218,468.7,210.8,467.9,210.8z"/>
								<g id="XMLID_1015_">
									<g id="XMLID_1017_">
										<path class="st23" d="M441,196.5c0,0,6.2-1.2,8.5,2"/>
									</g>
									<path id="XMLID_1016_" class="st23" d="M440.8,190.4c0,0,7.6,1.3,8.8,8.6"/>
								</g>
								<path id="XMLID_1014_" class="st22" d="M452.1,198.4c0,0,4.3,6.5,11.4,8.4c7.1,1.9,11.1-6.3,10.4-10c0,0,6.9,11.1,8.5,11.1          c0,0,1.7-4.5,1.1-9.5c-0.6-5-2.9-7.5-5.5-9.4c-2.4-1.8-4.8-0.7-5.8-0.1c-1.3-2.4-5.1-7.6-12.6-6.7          c-8.4,0.9-11.6,6.7-10.4,15.5c0,0-3.1-0.9-5,2.8c-1.9,3.6,0.2,10.7,2.7,14.1c0,0,2.2-0.7,3.2-0.5c0,0-1.5-5.8-0.1-10.9          C451.2,199,452.1,198.4,452.1,198.4z"/>
							</g>
							<g id="XMLID_1012_">
								<path class="st24" d="M456.2,242.1c0.7,3,5,7.8,11.2,8.1c6.2,0.3,11.3-3.9,12.2-5.7c5.2,0.5,11.8,1.9,14,2.3          c3.1,0.6,6.2,3.4,5,12.2c-1.1,8.6-7.9,62.7-7.9,62.7s-17.9,7-42.2,0.6c0,0-14.7-58.7-16-63.8c-1.3-5.1-2.9-10.4,1.7-12          C439,244.8,456.2,242.1,456.2,242.1z"/>
							</g>
							<path id="XMLID_1011_" class="st8" d="M476.2,304.6c0.3,0.1,0.7,0.1,1,0.2c3.4,0.4,1.9-3.5,0.8-5c-1.6-2.3-13-11.1-13-11.1         l-8.8,0.7l-10,4.1l-4.1,3.2c0.8,3.3,1.6,6.5,2.4,9.5c3.7-2.3,12.7-7.9,14.7-8c1.2-0.1,2.4,0.3,3.5,0.8         c1.6,0.7,3.2,1.3,4.9,1.9c0.8,0.3,1.5,0.5,2.2,0.9c1.3,0.6,2.5,1.5,3.8,2.1C474.5,304.2,475.4,304.4,476.2,304.6z"/>
							<line id="XMLID_1010_" class="st25" x1="514.5" y1="286.1" x2="520.9" y2="289.2"/>
							<line id="XMLID_1009_" class="st25" x1="511.7" y1="291.4" x2="518.2" y2="294.5"/>
							<path id="XMLID_1008_" class="st7" d="M421.8,314c8.5,1.2,23.5,1.5,36.8-10.5c10.7-9.7,20.4-28.1,45.2-20"/>
							<path id="XMLID_1007_" class="st8" d="M515.5,282.6c2.9,1.6-3.1,12.9-6,11.3l-4.1-2.2c-3.1-1.7-4.3-5.5-2.7-8.7l0,0         c1.7-3.1,5.5-4.3,8.7-2.7L515.5,282.6z"/>
							<g id="XMLID_1006_">
								<path class="st17" d="M427.8,255.3c0,0-20.1,36.3-23.7,42.4c-3.6,6.1-2.9,13-2.1,14.7s11.2,2.9,20.7-0.8          c9.6-3.6,34.2-16.1,36-17.1c0,0,2.3,1.5,4.7,2.7c3.3,1.6,5.9,1.6,8.1,3.2c2.1,1.6,4.5,4.7,8.6,2.7c2.4-1.2-3-8.8-5.4-13          c-2.4-2-10.9-5.5-15.1-4.9c-6,0.9-36.2,11.1-36.2,11.1l10.9-18.9L427.8,255.3z"/>
							</g>
							<path id="XMLID_1005_" class="st24" d="M435.4,246c-4.9,1.5-6.8,4-11.6,12.7c-4.8,8.8-11.2,19.4-11.2,19.4s5.2,8.1,16.6,10.4         l7.8-13.1L435.4,246z"/>
							<path id="XMLID_1004_" class="st24" d="M493.6,246.8c5.9,1,20.9,5.4,30.1-0.8c0,0,6.1,9.2,5,20.8c0,0-12.4,11.1-31.9,6.6         L493.6,246.8z"/>
							<g id="XMLID_994_">
								<g id="XMLID_1003_">
									<polygon class="st17" points="495.4,336.8 512.6,341.5 511.2,351 491.6,349          "/>
								</g>
								<g id="XMLID_1002_">
									<path class="st26" d="M495.4,336.8c0,0-39.6-13.7-54.3-19.1c-14.7-5.4-36.2-16.2-44.8-7.1c-8.5,9-1.4,22.5,19.1,29.9           c20.5,7.3,78.3,9.6,78.3,9.6C495.4,345.7,495.9,341.3,495.4,336.8z"/>
								</g>
								<g id="XMLID_995_">
									<g id="XMLID_1001_">
										<path class="st18" d="M529.6,337c0,0,0.5,2.2,0,6.9c-0.5,4.6-3.1,8-3.9,14.7c0,0-2.3-4.5-1.6-11.6            C524.8,340.1,529.6,337,529.6,337z"/>
									</g>
									<g id="XMLID_1000_">
										<path class="st8" d="M502.9,350.6c2.7,0.5,7.1,3,9.8,4.7c2.7,1.7,4.1,3.4,9.1,3.8c0,0,1.1-13.3,2-17.3            c0.9-4.1,1.8-4.7,1.8-4.7s-4.7-0.1-7.1,1c-2.4,1.1-2.7,1.6-6.8,1.4c-4.1-0.2-5.8-0.1-7.6-0.3            C501,343.2,501.7,348.4,502.9,350.6z"/>
									</g>
									<g id="XMLID_999_">
										<path class="st19" d="M514.7,353.1c0,0-1-7,1.7-11.5"/>
									</g>
									<g id="XMLID_998_">
										<path class="st19" d="M511.8,352.1c0,0-1.1-5.4,1.5-10.2"/>
									</g>
									<g id="XMLID_997_">
										<path class="st19" d="M508.7,350.5c0,0-1.1-3.6,1.1-8.6"/>
									</g>
									<g id="XMLID_996_">
										<path class="st20" d="M521.8,359.1c1.6,0.1,3.5,0.2,3.9-0.4c0.3-0.6-1.2-4.8,0.2-12.5c0.7-4.2,4.1-8.9,3.7-9.1            c-0.4-0.2-2.6-1.2-4,0C524.1,338.3,516.9,346.4,521.8,359.1z"/>
									</g>
								</g>
							</g>
							<g id="XMLID_993_">
								<path class="st27" d="M495.3,343.9h-0.9c0,0-25.8-1.7-53.5-6.2c-27.2-4.5-45.6-13.6-48-20.4c-1.2,8.1,6.6,17.5,22.5,23.2          c20.5,7.3,78.3,9.6,78.3,9.6C494.3,348.3,494.9,346.3,495.3,343.9z"/>
							</g>
							<g id="XMLID_990_">
								<defs>
									<path id="XMLID_991_" d="M495.4,336.8c0,0-39.6-13.7-54.3-19.1c-14.7-5.4-36.2-16.2-44.8-7.1c-8.5,9-1.4,22.5,19.1,29.9           c20.5,7.3,78.3,9.6,78.3,9.6C495.4,345.7,495.9,341.3,495.4,336.8z"/>
								</defs>
								<clipPath id="XMLID_40_">
									<use xlink:href="#XMLID_991_" style="overflow:visible;"/>
								</clipPath>
								<path id="XMLID_992_" class="st28" d="M490.2,334.5c0,3.6-0.8,11.6-2.3,16.6"/>
							</g>
						</g>
						<g id="XMLID_988_">
							<path class="st8" d="M436.9,275.5c0,0,3.1-8.2,1-20.2c0,0,3.9,14.7-0.3,22.8L436.9,275.5z"/>
						</g>
						<g id="XMLID_987_">
							<path class="st8" d="M496.8,273.5c0,0,1.1-9.3-0.9-18c0,0,2.5,5,2.3,18.3L496.8,273.5z"/>
						</g>
					</g>
					<g id="XMLID_978_">
						<g id="XMLID_985_">
							<path class="st29" d="M373.6,321.2c3.6-0.7,9.9-1.4,14.3,2.5c2.9,2.5,1.5,2.9-1,2.9c-4.3-0.1-7.7,3.5-7.7,3.5s-5.6,0.6-7-3.8         C370.2,319.9,373.6,321.2,373.6,321.2z"/>
						</g>
						<g id="XMLID_984_">
							<path class="st30" d="M359.9,353.8h27.6c6.3,0.1,10.6-0.3,13.7-3.1c3.6-3.2,4.2-8.8,3.6-13.2c-0.7-1.7-4.5-0.5-9.2-1.2         c-4.3-0.7-6.7-2.6-9.2-5.9c-2.4-3.2-3.7-4.5-8.5-6.9c-2.6-1.3-4.8-1.2-4.8-1.2s1.7-3.7,4.3-6.1c3.1-2.9-2.4-4-8.7-1.2         c-3.7,1.7-7.7,5-10.4,8.1c-1.8,2-6.5,1.7-11.5-2.2c-5.1-3.9-22.8-20-42.2-17.3c-19.4,2.7-32.9,18.6-34.9,30.1         c-2,11.4,1.8,17.9,5.1,20L359.9,353.8z"/>
						</g>
						<g id="XMLID_983_">
							<path class="st30" d="M271.3,334c-5.4-2.9-19.2-3.1-29.6,5.2c-10.2,8.1-14.4,25-6,37.7c8.4,12.7,24.9,13.1,27.1,11.3         c2.1-1.8-8.8-8.3-11.8-16.6c0,0,5.9,3.8,9.3,4.1c3.4,0.4-5.2-8.4-6.1-17.6c-0.9-9.3,3.7-19.4,14.9-19L271.3,334z"/>
						</g>
						<g id="XMLID_982_">
							<path class="st22" d="M404.5,343.8c-0.6,0.1-0.4-3.2-1.1-2.9c-0.7,0.3,0.5,2,0.5,2c-2.1-0.5-5-3.5-3.9-5.4         c1.2-1.9,4.6-1,5.4-0.7C406.6,337.3,407.4,341.4,404.5,343.8z"/>
						</g>
						<path id="XMLID_981_" class="st29" d="M301.2,318.4c0,0,7.5,0.6,10.3,8.7c2.9,8.1-0.3,12.9-2.7,15.5c0,0,10.6-1,15.3,2.1        s4.3,9.1,4.3,9.1l2.6,0c0,0,0.1-7.4-4.8-10.5s-9.1-3.5-11.9-3.3c0,0,2.9-6.3-0.4-13.7C310.5,319,304.2,318,301.2,318.4z"/>
						<path id="XMLID_980_" class="st29" d="M340.1,342.2c0,0,11-1.2,15.7,2.3c4.7,3.5,4.1,9.4,4.1,9.4l2.6,0c0,0,0.7-6.3-4.1-10.1        C353.7,340,343.3,341.1,340.1,342.2z"/>
						<g id="XMLID_979_">
							<path class="st22" d="M371.8,337.1c0,0-0.5-2.7,2.8-3.5c3.5-0.8,4.4,1.8,4.4,1.8s-1.8-0.7-4.1-0.1         C373.2,335.8,371.8,337.1,371.8,337.1z"/>
						</g>
					</g>
					<path id="XMLID_975_" class="st9" d="M385,154.8l21.2,22l-7.1,8l-23.5-19.4L385,154.8z M413.2,182.4c0.6,0.6,1.1,1.2,1.5,1.9       c0.3,0.7,0.5,1.5,0.6,2.3c0,0.8-0.1,1.5-0.3,2.3c-0.2,0.8-0.6,1.5-1.2,2.1c-0.6,0.6-1.2,1.1-1.9,1.5c-0.7,0.3-1.5,0.5-2.3,0.6       c-0.8,0-1.5-0.1-2.3-0.3c-0.8-0.2-1.5-0.7-2.1-1.2c-0.6-0.6-1.1-1.2-1.5-1.9c-0.4-0.7-0.6-1.5-0.6-2.3c0-0.8,0.1-1.6,0.3-2.3       c0.2-0.8,0.6-1.5,1.2-2.1c0.6-0.6,1.2-1.1,1.9-1.4c0.7-0.3,1.5-0.5,2.3-0.6c0.8,0,1.6,0.1,2.3,0.3       C411.9,181.4,412.6,181.8,413.2,182.4z"/>
					<path id="XMLID_972_" class="st9" d="M429.1,162.3l-9.5,2.4c-0.6-2-0.9-3.6-0.9-5.1c0-1.4,0.2-2.7,0.6-3.7       c0.4-1,0.9-1.9,1.5-2.7c0.6-0.7,1.2-1.4,1.9-2c0.6-0.6,1.2-1.1,1.6-1.6c0.5-0.5,0.7-1.1,0.8-1.7c0-0.4,0-0.8-0.2-1.2       c-0.2-0.4-0.5-0.8-0.9-1.1c-0.4-0.3-1-0.5-1.7-0.6c-0.7-0.1-1.6,0-2.6,0.2c-0.7,0.2-1.5,0.4-2.4,0.8c-0.9,0.4-1.8,0.8-2.8,1.3       c-0.9,0.5-1.9,1.1-2.8,1.7c-0.9,0.6-1.7,1.2-2.3,1.9l-4-10.7c0.6-0.6,1.3-1.2,2-1.9c0.8-0.7,1.6-1.3,2.6-1.9       c1-0.6,2-1.2,3.2-1.7c1.2-0.5,2.5-1,3.9-1.3c2.3-0.6,4.6-0.8,6.8-0.7c2.2,0.1,4.2,0.6,6.1,1.5c1.8,0.9,3.4,2.1,4.8,3.7       c1.4,1.6,2.3,3.5,2.9,5.9c0.4,1.8,0.5,3.3,0.3,4.5c-0.2,1.2-0.7,2.3-1.3,3.1c-0.6,0.9-1.3,1.7-2.2,2.4       c-0.9,0.7-1.7,1.5-2.5,2.2c-0.8,0.8-1.5,1.7-2,2.7C429.4,159.6,429.1,160.9,429.1,162.3z M432.3,169.4c0.2,0.8,0.2,1.6,0.1,2.4       c-0.1,0.8-0.4,1.5-0.8,2.2c-0.4,0.7-0.9,1.2-1.6,1.7s-1.4,0.8-2.2,1c-0.8,0.2-1.6,0.2-2.4,0.1c-0.8-0.1-1.5-0.4-2.2-0.8       c-0.7-0.4-1.2-0.9-1.7-1.6c-0.5-0.6-0.8-1.4-1-2.2c-0.2-0.8-0.2-1.6-0.1-2.4c0.1-0.8,0.4-1.5,0.8-2.2c0.4-0.7,0.9-1.3,1.6-1.7       c0.6-0.5,1.4-0.8,2.2-1.1c0.8-0.2,1.6-0.2,2.4-0.1c0.8,0.1,1.5,0.4,2.2,0.8c0.7,0.4,1.3,0.9,1.8,1.6       C431.8,167.9,432.1,168.6,432.3,169.4z"/>
				</g>
				<g id="XMLID_970_">
					<text transform="matrix(1 0 0 1 101.0972 182.5527)" class="st31 st32 st33">PRODUCT  </text>
				</g>
				<g id="XMLID_969_">
					<text transform="matrix(1 0 0 1 101.0972 212.5869)" class="st34 st32 st35">WE ARE EXTREMLY SORRY.</text>
				</g>
				<text transform="matrix(1 0 0 1 278.2939 180.8232)" class="st31 st32 st33">404</text>
			</g>
			<g>
				<g id="XMLID_876_">
					<g id="XMLID_891_">
						<g id="XMLID_894_">
							<g id="XMLID_895_">
								<defs>
									<path id="XMLID_896_" d="M495.4,336.8c0,0-39.6-13.7-54.3-19.1c-14.7-5.4-36.2-16.2-44.8-7.1c-8.5,9-1.4,22.5,19.1,29.9           c20.5,7.3,78.3,9.6,78.3,9.6C495.4,345.7,495.9,341.3,495.4,336.8z"/>
								</defs>
								<clipPath id="XMLID_42_">
									<use xlink:href="#XMLID_896_" style="overflow:visible;"/>
								</clipPath>
							</g>
						</g>
					</g>
				</g>
			</g>
		</g>
	</g>
</g>

</svg>